<svg width="64" height="64" viewBox="0 0 65 65" fill="none" xmlns="http://www.w3.org/2000/svg">
<path d="M44 45.9228C46.8203 44.7074 49.6374 42.846 51.8174 40.0002M19.6999 21.6227L21.5653 14.3448C22.7401 9.76117 23.3276 7.46933 24.8615 6.31717C25.3758 5.9309 25.9522 5.64432 26.5634 5.47106C28.3864 4.95421 30.4584 5.9245 34.6022 7.86506C37.671 9.30208 39.2051 10.0206 40.8062 10.5287C41.3627 10.7054 41.9248 10.8629 42.4912 11.0008C44.1208 11.3975 45.7934 11.5773 49.1379 11.9367C53.655 12.4222 55.9134 12.6649 57.2448 14.0654C57.6912 14.5349 58.0534 15.0844 58.3142 15.6877C59.0915 17.4873 58.504 19.7792 57.3291 24.3629L56.0552 29.3335" stroke="black" stroke-width="5" stroke-linecap="round"/>
<path d="M6.57798 34.6667C5.46566 30.3235 4.92944 28.1059 5.68606 26.3542C5.94667 25.7509 6.3088 25.2014 6.7552 24.7319C8.08678 23.3314 10.3452 23.0887 14.8621 22.6032C18.2069 22.2438 19.8792 22.064 21.5088 21.6673C22.0753 21.5294 22.6374 21.3719 23.194 21.1952C24.795 20.6871 26.3293 19.9686 29.3979 18.5316C33.5419 16.591 35.6136 15.6207 37.4368 16.1376C38.048 16.3108 38.6243 16.5974 39.1387 16.9837C40.6726 18.1358 41.26 20.4277 42.435 25.0114L44.6886 33.8043C47.3379 44.1403 41.2646 51.56 36.6198 55.5251C35.2027 56.7347 34.4942 57.3395 31.752 58.1075C29.0099 58.8757 28.107 58.7221 26.3011 58.4155C20.6807 57.4603 12.4554 54.4805 9.37155 45.3333" stroke="black" stroke-width="5" stroke-linecap="round"/>
<path d="M14.0235 35.4544C14.1838 33.8032 15.4132 32.3214 17.197 31.8435C18.9808 31.3654 20.7864 32.0339 21.7509 33.384" stroke="black" stroke-width="5" stroke-linecap="round"/>
<path d="M51.1459 23.8285C50.9853 22.1772 49.756 20.6954 47.9723 20.2174C46.1885 19.7395 44.3829 20.408 43.4184 21.758" stroke="black" stroke-width="5" stroke-linecap="round"/>
<path d="M29.4792 31.313C29.6395 29.6615 30.8691 28.1799 32.6528 27.7017C34.4365 27.2239 36.2421 27.8924 37.2067 29.2423" stroke="black" stroke-width="5" stroke-linecap="round"/>
<path d="M35.2019 43.2829C35.2019 43.2829 32.4688 41.2543 27.7024 42.5314C22.9358 43.8087 21.5833 46.9319 21.5833 46.9319" stroke="black" stroke-width="5" stroke-linecap="round"/>
</svg>
