<svg width="64" height="64" viewBox="0 0 65 65" fill="none" xmlns="http://www.w3.org/2000/svg">
<path d="M56 19.0994C56 16.3166 56 14.9251 55.2451 13.8776C54.4899 12.83 53.1699 12.39 50.5299 11.51L47.4237 10.4746C43.7781 9.25943 41.9555 8.65183 40.1203 8.89759C38.2851 9.14335 36.6864 10.2091 33.4888 12.3407L29.8027 14.7983C27.3064 16.4624 26.0584 17.2944 24.6583 17.6254C24.144 17.7469 23.619 17.8172 23.0909 17.8353C21.653 17.8844 20.23 17.41 17.384 16.4614C13.6562 15.2188 11.7923 14.5975 10.3741 15.2284C9.87059 15.4524 9.41877 15.7781 9.04704 16.1849C8 17.3308 8 19.2956 8 23.225V34.0629M56 29.3333V40.7752C56 44.7045 56 46.6693 54.9531 47.8152C54.5813 48.2221 54.1293 48.5477 53.6259 48.7717C52.2077 49.4027 50.3437 48.7813 46.616 47.5387C43.7699 46.5901 42.3469 46.1157 40.9091 46.1648C40.3811 46.1829 39.856 46.2531 39.3419 46.3747C37.9416 46.7056 36.6936 47.5376 34.1973 49.2019L30.5112 51.6592C27.3136 53.7909 25.715 54.8568 23.8798 55.1024C22.0446 55.3483 20.2218 54.7405 16.5762 53.5253L13.4702 52.4901C10.8301 51.6101 9.51005 51.1701 8.75504 50.1224C8.04019 49.1307 8.00213 47.8307 8.00011 45.3333" stroke="black" stroke-width="6" stroke-linecap="round"/>
<path d="M40 9.33337V18.6667M40 45.3334V29.3334" stroke="black" stroke-width="6" stroke-linecap="round"/>
<path d="M24 54.6666V45.3333M24 18.6666V34.6666" stroke="black" stroke-width="6" stroke-linecap="round"/>
</svg>
