<svg width="64" height="64" viewBox="0 0 64 64" fill="none" xmlns="http://www.w3.org/2000/svg">
<path fill-rule="evenodd" clip-rule="evenodd" d="M21.4045 19.8907C21.1414 20.7699 21 21.7018 21 22.6667C21 28.0054 25.328 32.3333 30.6667 32.3333C36.0054 32.3333 40.3333 28.0054 40.3333 22.6667C40.3333 17.3279 36.0054 13 30.6667 13C27.3775 13 24.4719 14.6428 22.7258 17.1527C24.5501 18.4454 26.3214 19.539 27.9515 20.2025C28.6223 19.4638 29.5903 19 30.6667 19C32.6917 19 34.3333 20.6416 34.3333 22.6667C34.3333 24.6917 32.6917 26.3333 30.6667 26.3333C28.7745 26.3333 27.217 24.9 27.0208 23.0598C25.0975 22.3068 23.1779 21.1249 21.4045 19.8907Z" fill="black"/>
<path fill-rule="evenodd" clip-rule="evenodd" d="M19.736 51.6536C18.4066 51.558 17.3025 51.4329 16.4563 51.2847C17.1406 50.1692 18.3792 48.7242 20.0542 47.2562C23.6399 44.1136 28.2841 41.6667 32.0001 41.6667C33.7313 41.6667 35.7669 42.2831 37.8993 43.4188C40.0071 44.5413 42.0283 46.0755 43.6763 47.6616C44.8929 48.8324 45.8152 49.9436 46.4123 50.8436L46.3505 50.8519C45.2294 51.0016 43.8005 51.1477 42.1544 51.2806C40.1306 51.444 37.8131 51.5847 35.3908 51.6879C36.0895 53.0813 36.9909 54.4726 38.0313 55.8029C38.4843 56.3821 38.9597 56.9447 39.4505 57.4858C40.565 57.4175 41.6341 57.3421 42.6373 57.2611C44.3455 57.1232 45.8853 56.9672 47.1444 56.7992C48.328 56.6412 49.4819 56.4461 50.2821 56.1794C51.0077 55.9375 51.7315 55.4935 52.2823 54.7762C52.8275 54.0664 53.0581 53.2784 53.1185 52.5787C53.2298 51.2916 52.793 50.0765 52.3636 49.1816C51.4595 47.2969 49.7908 45.2189 47.8369 43.3385C45.8483 41.4246 43.3844 39.5421 40.7197 38.123C38.0797 36.717 35.0554 35.6667 32.0001 35.6667C26.1431 35.6667 20.1206 39.2198 16.0996 42.7439C14.0454 44.5442 12.2803 46.5362 11.1891 48.4024C10.6526 49.3199 10.1715 50.3876 10.0086 51.5046C9.84086 52.6552 9.98239 54.225 11.2121 55.4547C11.8265 56.069 12.5675 56.4036 13.0763 56.5951C13.6416 56.8079 14.2639 56.9677 14.8852 57.0937C16.1311 57.3466 17.6556 57.5195 19.3058 57.6381C22.6232 57.8766 26.7672 57.917 30.8946 57.8327C32.5022 57.7999 34.117 57.748 35.6913 57.6806C35.6836 57.6707 35.6759 57.6609 35.6682 57.651C34.2542 55.843 33.0112 53.8532 32.1381 51.8015C31.6831 51.8138 31.2274 51.8247 30.7722 51.834C26.7329 51.9164 22.7936 51.8734 19.736 51.6536ZM15.1227 50.9526C15.106 50.9452 15.0986 50.9412 15.099 50.941C15.0995 50.9408 15.1078 50.9445 15.1227 50.9526Z" fill="black"/>
</svg>
