<svg width="58" height="58" viewBox="0 0 58 58" fill="none" xmlns="http://www.w3.org/2000/svg">
<path d="M29 36.25C33.0041 36.25 36.25 33.0041 36.25 29C36.25 24.9959 33.0041 21.75 29 21.75C24.9959 21.75 21.75 24.9959 21.75 29C21.75 33.0041 24.9959 36.25 29 36.25Z" stroke="black" stroke-width="5"/>
<path d="M8.84796 25.7114C9.98996 26.4289 10.7247 27.6512 10.7247 28.9997C10.7247 30.3485 9.98993 31.5708 8.84796 32.2883C8.07086 32.7765 7.57017 33.1668 7.21396 33.631C6.43359 34.6482 6.08919 35.9334 6.25652 37.2043C6.382 38.1575 6.94501 39.1326 8.07103 41.0831C9.19707 43.0333 9.76008 44.0084 10.5228 44.5938C11.5398 45.3741 12.8251 45.7185 14.096 45.5512C14.6761 45.4749 15.2644 45.2364 16.0756 44.8076C17.2682 44.1774 18.6943 44.1522 19.8625 44.8267C21.0305 45.5012 21.7217 46.7487 21.7721 48.0965C21.8064 49.0136 21.894 49.6424 22.1179 50.183C22.6085 51.3672 23.5494 52.3082 24.7336 52.7988C25.622 53.1666 26.7479 53.1666 29 53.1666C31.2521 53.1666 32.378 53.1666 33.2664 52.7988C34.4506 52.3082 35.3916 51.3672 35.8822 50.183C36.106 49.6424 36.1937 49.0136 36.228 48.0967C36.2783 46.7487 36.9695 45.5012 38.1377 44.8267C39.3056 44.1525 40.7317 44.1776 41.9241 44.8079C42.7356 45.2366 43.3238 45.4751 43.9038 45.5515C45.1748 45.719 46.4602 45.3743 47.4771 44.594C48.2398 44.0089 48.8029 43.0336 49.9291 41.0833C50.4303 40.215 50.8201 39.54 51.1091 38.974M49.1519 32.2886C48.01 31.5711 47.2753 30.3487 47.2751 29.0002C47.2751 27.6515 48.01 26.4289 49.1519 25.7114C49.9291 25.2232 50.4296 24.8329 50.7858 24.3687C51.5661 23.3517 51.9105 22.0664 51.7433 20.7954C51.6178 19.8423 51.0548 18.8671 49.9286 16.9168C48.8027 14.9664 48.2396 13.9913 47.4769 13.406C46.4599 12.6256 45.1745 12.2812 43.9036 12.4485C43.3236 12.5249 42.7354 12.7634 41.9241 13.1922C40.7315 13.8224 39.3054 13.8476 38.1374 13.1731C36.9695 12.4987 36.2783 11.2513 36.228 9.90355C36.1937 8.9864 36.106 8.35766 35.8822 7.817C35.3916 6.63271 34.4506 5.69179 33.2664 5.20123C32.378 4.83331 31.2521 4.83331 29 4.83331C26.7479 4.83331 25.622 4.83331 24.7336 5.20123C23.5494 5.69179 22.6085 6.63271 22.1179 7.817C21.894 8.35761 21.8064 8.98631 21.7721 9.90333C21.7216 11.2512 21.0305 12.4988 19.8624 13.1731C18.6943 13.8475 17.2683 13.8223 16.0758 13.1921C15.2645 12.7633 14.6762 12.5248 14.0961 12.4484C12.8251 12.2811 11.5398 12.6255 10.5228 13.4059C9.76011 13.9911 9.1971 14.9663 8.07105 16.9166C7.56976 17.7849 7.18005 18.4599 6.89085 19.0257" stroke="black" stroke-width="5" stroke-linecap="round"/>
</svg>
