<svg width="800" height="800" viewBox="0 0 130 130" fill="none" xmlns="http://www.w3.org/2000/svg">
<path d="M42.5731 65.3801H88.1872" stroke="#757575" stroke-width="12" stroke-linecap="round" stroke-linejoin="round"/>
<path d="M65.7365 42.5731L65.3801 88.1864" stroke="#757575" stroke-width="12" stroke-linecap="round" stroke-linejoin="round"/>
<path fill-rule="evenodd" clip-rule="evenodd" d="M33.3159 36.2997C41.1376 27.6701 52.4358 22.25 65 22.25C88.6104 22.25 107.75 41.3898 107.75 65C107.75 76.6611 103.081 87.2317 95.5107 94.9444L102.72 104.683C113.21 94.709 119.75 80.6183 119.75 65C119.75 34.7624 95.2378 10.25 65 10.25C47.6696 10.25 32.2199 18.3021 22.1879 30.8692L33.3159 36.2997ZM27.9332 43.6874L17.1269 38.4139C12.7458 46.2861 10.25 55.3516 10.25 65C10.25 95.2378 34.7624 119.75 65 119.75C76.7391 119.75 87.6152 116.056 96.5291 109.766L89.3863 100.117C82.4699 104.929 74.0644 107.75 65 107.75C41.3898 107.75 22.25 88.6104 22.25 65C22.25 57.2391 24.3181 49.9612 27.9332 43.6874Z" fill="#757575"/>
</svg>
