<svg width="800" height="800" viewBox="0 0 80 80" fill="none" xmlns="http://www.w3.org/2000/svg">
    <g transform="translate(7, 9)">
        <path fill-rule="evenodd" clip-rule="evenodd" d="M58.6667 46.6667C58.6667 40.0392 53.2941 34.6667 46.6667 34.6667C40.0393 34.6667 34.6667 40.0392 34.6667 46.6667C34.6667 53.2941 40.0393 58.6667 46.6667 58.6667C53.2941 58.6667 58.6667 53.2941 58.6667 46.6667ZM42.6667 53.3333V40L54.6667 46.6667L42.6667 53.3333ZM32 46.6667C32 45.2799 32.1925 43.9381 32.5522 42.6666L12.8272 42.6666L26.59 48.0001L32.0598 48.0002C32.0203 47.561 32 47.1162 32 46.6667ZM18.2876 48.0001L5.33337 48V42.98L18.2876 48.0001ZM16 40V21.3333H8.00004V40H16ZM29.3334 40V29.3333H21.3334V40H29.3334ZM42.6666 32.5521L42.6667 26.6667H34.6667L34.6664 38.2322C36.5787 35.5165 39.3895 33.479 42.6666 32.5521ZM56.0003 35.3526L56 29.3333H48L48.0002 32.0598C51.0255 32.3325 53.7859 33.5238 56.0003 35.3526ZM42.6667 12C42.6667 9.79086 40.8758 8 38.6667 8C36.4576 8 34.6667 9.79086 34.6667 12C34.6667 12.2731 34.6941 12.5398 34.7462 12.7975L27.8814 16.9164C27.1894 16.344 26.3016 16 25.3334 16C24.3651 16 23.4772 16.344 22.7853 16.9165L15.9205 12.7975C15.9727 12.5398 16 12.2731 16 12C16 9.79086 14.2092 8 12 8C9.7909 8 8.00004 9.79086 8.00004 12C8.00004 14.2091 9.7909 16 12 16C12.9682 16 13.856 15.6561 14.5479 15.0837L21.4129 19.2026C21.3607 19.4603 21.3334 19.727 21.3334 20C21.3334 22.2091 23.1242 24 25.3334 24C27.5425 24 29.3334 22.2091 29.3334 20C29.3334 19.7268 29.306 19.4599 29.2538 19.2021L36.1177 15.0828C36.8098 15.6557 37.698 16 38.6667 16C39.8649 16 40.94 15.4732 41.6731 14.6385L48.0033 17.1706C48.0011 17.2246 48 17.2788 48 17.3333C48 19.5425 49.7909 21.3333 52 21.3333C54.2092 21.3333 56 19.5425 56 17.3333C56 15.1242 54.2092 13.3333 52 13.3333C50.8019 13.3333 49.7268 13.8601 48.9937 14.6947L42.6635 12.1626C42.6656 12.1086 42.6667 12.0545 42.6667 12Z" fill="black"/>
    </g>
</svg>
