<svg width="800" height="800" viewBox="0 0 64 64" fill="none" xmlns="http://www.w3.org/2000/svg">
<g transform="translate(1, 3)">
<path fill-rule="evenodd" clip-rule="evenodd" d="M39.3094 19.9839L29 25.936L14.7417 17.7039L29 9.47186L32.9246 11.7377L29.6327 4.25609L29 3.89081L7.25 16.4482V41.5629L16.2663 46.7685C15.7301 44.6828 15.2868 42.5733 14.9735 40.441L12.0833 38.7724L12.0833 21.7501L26.5833 30.1216V47.1439L18.3472 42.3888C18.7716 44.5788 19.3287 46.7507 19.9757 48.9101L29 54.1203L31.4166 52.725V30.1216L45.9166 21.7502V31.4166H50.75V16.4482L34.0264 6.7928L37.3183 14.2745L43.2583 17.7039L39.7249 19.7439L39.7459 19.7918L39.3094 19.9839Z" fill="black"/>
<path fill-rule="evenodd" clip-rule="evenodd" d="M53 41.3956H40.155L45.4498 36.1008L43.1762 33.8273L34 43.0035L43.1762 52.1798L45.4498 49.9062L40.155 44.6114H53V41.3956Z" fill="black"/>
</g>
</svg>
