<svg width="800" height="800" viewBox="0 0 80 80" fill="none" xmlns="http://www.w3.org/2000/svg">
<g transform="translate(9, 11)">
<path fill-rule="evenodd" clip-rule="evenodd" d="M61.3221 45.7944L61.3344 45.8163L61.3494 45.8079L64 47.1122L45.8674 56.0285L27.7349 47.1122L31.7857 45.1188L45.8674 52.0448L59.9492 45.1188L61.3221 45.7944ZM58.9707 41.614L45.8674 48.0573L27.7349 39.141L45.8674 30.2246L55.1246 34.7767L58.9707 41.614ZM60.7682 40.7301L64 39.141L58.2967 36.3365L60.7682 40.7301ZM64 55.0834L59.9474 53.0915L45.8674 60.016L31.7875 53.0915L27.7349 55.0834L45.8674 63.9997L64 55.0834ZM35.8419 39.141L45.8674 34.2102L55.8911 39.141L45.8674 44.0699L35.8419 39.141Z" fill="black"/>
<path fill-rule="evenodd" clip-rule="evenodd" d="M4.80175 24.2041V24.8727C4.80175 36.2783 19.7442 50.0851 24.6099 54.2839V60.422L23.1015 59.2227C19.0115 55.8689 15.1969 52.202 11.6946 48.2559C3.93508 39.487 0 31.6225 0 24.8727V24.2041C0 17.3638 2.90025 11.1771 7.55474 6.77085L13.3591 8.17796C8.19252 11.6975 4.80175 17.5688 4.80175 24.2041ZM15.8627 6.72696C18.5021 5.44381 21.472 4.72234 24.6099 4.72234C34.8723 4.72234 43.3387 12.4369 44.3222 22.2794L49.135 26.5979C49.1903 26.0152 49.221 25.4397 49.221 24.8727V24.2041C49.221 10.858 38.1792 0 24.6099 0C18.8865 0 13.613 1.93171 9.42806 5.16705L15.8627 6.72696Z" fill="black"/>
<path d="M14.4065 24.2026C14.4065 29.7447 18.9747 34.2373 24.6099 34.2373C30.2451 34.2373 34.8133 29.7447 34.8133 24.2026C34.8133 18.6606 30.2451 14.168 24.6099 14.168C18.9784 14.1752 14.4139 18.6642 14.4065 24.2026ZM30.0128 24.2038C30.0128 27.1381 27.5935 29.5174 24.6099 29.5174C21.6263 29.5174 19.207 27.1381 19.207 24.2038C19.207 21.2696 21.6263 18.8903 24.6099 18.8903C27.5923 18.8939 30.0091 21.2708 30.0128 24.2038Z" fill="black"/>
</g>
</svg>
