<svg width="800" height="800" viewBox="0 0 64 64" fill="none" xmlns="http://www.w3.org/2000/svg">
    <g clip-path="url(#clip0_293_5)" transform="translate(8, 6)">
        <path fill-rule="evenodd" clip-rule="evenodd" d="M32.3094 16.9838L22 22.936L7.74167 14.7039L22 6.47186L25.9246 8.73774L22.6327 1.25609L22 0.890808L0.25 13.4482V38.5629L9.26626 43.7685C8.73013 41.6828 8.28675 39.5733 7.97351 37.441L5.08333 35.7724L5.08326 18.7501L19.5833 27.1216V44.1439L11.3472 39.3888C11.7716 41.5788 12.3287 43.7507 12.9757 45.9101L22 51.1203L24.4166 49.725V27.1216L38.9166 18.7502V28.4166H43.75V13.4482L27.0264 3.79281L30.3183 11.2745L36.2583 14.7039L32.7249 16.7439L32.7459 16.7918L32.3094 16.9838ZM38.9167 30.8333L38.9166 38.0833H46.1667V42.9166H38.9166L38.9167 50.1666H34.0833V42.9166H26.8333V38.0833H34.0833V30.8333H38.9167Z" fill="black"/>
    </g>
    <defs>
        <clipPath id="clip0_293_5">
            <rect width="64" height="64" fill="white"/>
        </clipPath>
    </defs>
</svg>
