<svg width="800" height="800" viewBox="0 0 88 88" fill="none" xmlns="http://www.w3.org/2000/svg">
<g transform="translate(10, 13)">
<path fill-rule="evenodd" clip-rule="evenodd" d="M6.41174 26.4751V60.2484C6.41174 62.9295 8.60405 65.1176 11.2941 65.1176H43.2549L40.4549 59.1176H12.4117V17.9923L6.41174 26.4751ZM18.0101 4.88232H12.4117V12.7972L6.41174 21.28V3.7515C6.41174 1.04171 8.61965 -1.11768 11.2847 -1.11768H22.254L18.0101 4.88232ZM21.6847 4.88232H43.3035C43.3844 4.88232 43.6693 4.91647 44.0626 5.05442C44.4554 5.19221 44.7009 5.34397 44.7686 5.39826L44.7733 5.40207L51.2321 10.5653C51.2386 10.5721 51.2593 10.5941 51.2904 10.6357C51.3429 10.7059 51.4027 10.8022 51.4576 10.9159C51.5124 11.0296 51.5502 11.1356 51.572 11.2191C51.5846 11.2673 51.5888 11.296 51.5901 11.3054V59.1176H43.7655L46.5655 65.1176H52.7077C55.3997 65.1176 57.5901 62.9389 57.5901 60.2409V11.2884C57.5901 10.1945 57.2646 9.14421 56.8614 8.30854C56.4582 7.47273 55.8419 6.57141 54.9993 5.89531L54.9951 5.89199L48.5246 0.719333L48.5225 0.717697C47.7699 0.114014 46.8624 -0.321934 46.0484 -0.60742C45.2342 -0.893003 44.2579 -1.11768 43.3035 -1.11768H25.9286L21.6847 4.88232Z" fill="black"/>
<path fill-rule="evenodd" clip-rule="evenodd" d="M18.8235 22.5883H45.1764V24.4706H18.8235V22.5883Z" fill="#575757"/>
<path fill-rule="evenodd" clip-rule="evenodd" d="M18.8235 28.2354H45.1764V30.1177H18.8235V28.2354Z" fill="#575757"/>
<path fill-rule="evenodd" clip-rule="evenodd" d="M18.8235 33.8823H45.1764V35.7647H18.8235V33.8823Z" fill="#575757"/>
<path fill-rule="evenodd" clip-rule="evenodd" d="M18.8235 39.5294H30.1176V41.4118H18.8235V39.5294Z" fill="#575757"/>
<path fill-rule="evenodd" clip-rule="evenodd" d="M41.4117 3.76465H43.2941V15.0588H41.4117V3.76465Z" fill="black"/>
<path fill-rule="evenodd" clip-rule="evenodd" d="M41.4117 13.1764H52.7059V15.0587H41.4117V13.1764Z" fill="black"/>
</g>
<defs>
<clipPath id="clip0_19_102">
<rect width="64" height="64" fill="white"/>
</clipPath>
</defs>
</svg>
